<?xml version="1.0" encoding="iso-8859-1"?>
<!-- Generator: Adobe Illustrator 19.0.0, SVG Export Plug-In . SVG Version: 6.00 Build 0)  -->
<svg version="1.1" id="Layer_1" xmlns="http://www.w3.org/2000/svg" xmlns:xlink="http://www.w3.org/1999/xlink" x="0px" y="0px"
	 viewBox="0 0 475 475" style="enable-background:new 0 0 475 475;" xml:space="preserve">
<g transform="translate(0 -540.36)">
	<g>
		<g>
			<path d="M473,703.31l-66.7-70.6c-1.4-1.5-3.4-2.4-5.5-2.4H77.3c-2,0-3.9,0.8-5.3,2.2l-69.8,70.6c-1.4,1.4-2.2,3.3-2.2,5.3v209.5
				c0,4.1,3.4,7.5,7.5,7.5h460c4.1,0,7.5-3.4,7.5-7.5v-209.5C475,706.51,474.3,704.71,473,703.31z M160.6,910.41H15v-37.6h145.6
				V910.41z M160.6,857.91H15v-37.6h145.6V857.91z M160.6,805.31H15v-36.8h145.6V805.31z M160.6,753.51H15v-37.6h145.6V753.51z
				 M25.5,700.91l54.9-55.6h118.7l-36.7,55.6H25.5z M300.2,910.41H175.6v-202.1l41.5-63h41.6l41.5,63V910.41z M276.6,645.31
				L276.6,645.31h120.9l52.5,55.6H313.3L276.6,645.31z M460,910.41H315.2v-37.6H460V910.41z M460,857.91H315.2v-37.6H460V857.91z
				 M460,805.31H315.2v-36.8H460V805.31z M460,753.51H315.2v-37.6H460V753.51z"/>
		</g>
	</g>
</g>
<g>
</g>
<g>
</g>
<g>
</g>
<g>
</g>
<g>
</g>
<g>
</g>
<g>
</g>
<g>
</g>
<g>
</g>
<g>
</g>
<g>
</g>
<g>
</g>
<g>
</g>
<g>
</g>
<g>
</g>
</svg>
