<svg id="Capa_1" enable-background="new 0 0 494.732 494.732" height="512" viewBox="0 0 494.732 494.732" width="512" xmlns="http://www.w3.org/2000/svg"><g><path d="m431.188 407.028v-384.608c0-12.382-10.038-22.42-22.42-22.42h-322.804c-12.382 0-22.42 10.038-22.42 22.42v384.608z" fill="#edf5fa"/><path d="m401.188 22.42v384.608h30v-384.608c0-12.382-10.038-22.42-22.42-22.42h-30c12.382 0 22.42 10.038 22.42 22.42z" fill="#d0e7f2"/><path d="m63.544 391.815v80.497c0 12.382 10.038 22.42 22.42 22.42h322.804c12.382 0 22.42-10.038 22.42-22.42v-80.497z" fill="#46cc8d"/><path d="m401.188 391.815v80.497c0 12.382-10.038 22.42-22.42 22.42h30c12.382 0 22.42-10.038 22.42-22.42v-80.497z" fill="#08b865"/><path d="m329.67 336.132h-164.608c-12.146 0-21.992-9.846-21.992-21.992v-129.245l97.49-10 111.101 10v129.245c.001 12.146-9.845 21.992-21.991 21.992z" fill="#fee97d"/><path d="m240.561 174.895-14.021 1.438 95.122 8.562v129.245c0 12.146-9.846 21.992-21.992 21.992h30c12.146 0 21.992-9.846 21.992-21.992v-129.245z" fill="#fedf30"/><path d="m143.07 103.711h136.266c4.143 0 7.5-3.358 7.5-7.5s-3.357-7.5-7.5-7.5h-136.266c-4.142 0-7.5 3.358-7.5 7.5s3.358 7.5 7.5 7.5z" fill="#d0e7f2"/><path d="m143.07 67.674h136.266c4.143 0 7.5-3.358 7.5-7.5s-3.357-7.5-7.5-7.5h-136.266c-4.142 0-7.5 3.358-7.5 7.5s3.358 7.5 7.5 7.5z" fill="#d0e7f2"/><g fill="#edf5fa"><path d="m212.138 440.473 11.101-17.788c.51-.8.757-1.577.757-2.374 0-3.111-3.955-5.525-7.358-5.525-1.686 0-2.873.662-3.625 2.017l-8.598 14.997-8.594-14.99c-.756-1.361-1.942-2.023-3.628-2.023-3.403 0-7.358 2.413-7.358 5.525 0 .797.248 1.573.755 2.37l11.104 17.792-11.583 17.878c-.466.776-.683 1.462-.683 2.158 0 3.323 4.517 5.729 7.562 5.729 1.352 0 2.394-.468 2.943-1.333l9.483-16.108 9.475 16.093c.467.856 1.542 1.347 2.951 1.347 3.045 0 7.562-2.406 7.562-5.729 0-.697-.217-1.383-.691-2.173z"/><path d="m259.622 455.595h-14.982v-36.71c0-2.724-3.123-3.691-5.796-3.691s-5.796.967-5.796 3.691v43.186c0 2.583 2.653 3.759 5.118 3.759h21.457c2.443 0 3.556-2.653 3.556-5.117s-1.113-5.118-3.557-5.118z"/><path d="m289.189 433.646c-3.833-1.69-6.861-3.025-6.861-5.323 0-1.728 1.652-3.574 6.29-3.574 3.227 0 4.962.899 6.355 1.621.993.515 1.851.959 2.946.959 3.328 0 4.71-3.952 4.71-6.068 0-6.163-11.672-6.475-14.012-6.475-8.249 0-17.883 3.812-17.883 14.556 0 9.562 7.577 13.082 13.666 15.91 4.217 1.959 7.858 3.651 7.858 6.769 0 2.939-3.278 3.981-6.086 3.981-3.521 0-5.618-1.615-7.469-3.04-1.384-1.065-2.579-1.985-4.075-1.985-2.969 0-5.117 3.706-5.117 6.204 0 4.969 7.881 9.327 16.864 9.327 10.779 0 17.476-5.968 17.476-15.574.001-10.823-8.474-14.56-14.662-17.288z"/></g><path d="m351.662 184.302h-208.592v-16.075c0-11.758 9.532-21.29 21.29-21.29h166.012c11.758 0 21.29 9.532 21.29 21.29z" fill="#46cc8d"/><path d="m330.372 146.937h-30c11.758 0 21.29 9.532 21.29 21.29v16.075h30v-16.075c0-11.758-9.532-21.29-21.29-21.29z" fill="#08b865"/><g><g><g><path d="m303.852 241.358h-116.566c-4.142 0-7.5-3.358-7.5-7.5s3.358-7.5 7.5-7.5h116.566c4.143 0 7.5 3.358 7.5 7.5s-3.357 7.5-7.5 7.5z" fill="#fed402"/></g><g><path d="m303.852 283.682h-116.566c-4.142 0-7.5-3.358-7.5-7.5s3.358-7.5 7.5-7.5h116.566c4.143 0 7.5 3.358 7.5 7.5s-3.357 7.5-7.5 7.5z" fill="#fed402"/></g></g><g><g><path d="m218.116 304.364c-4.142 0-7.5-3.358-7.5-7.5v-83.688c0-4.142 3.358-7.5 7.5-7.5s7.5 3.358 7.5 7.5v83.688c0 4.143-3.358 7.5-7.5 7.5z" fill="#fed402"/></g><g><path d="m273.021 304.364c-4.143 0-7.5-3.358-7.5-7.5v-83.688c0-4.142 3.357-7.5 7.5-7.5s7.5 3.358 7.5 7.5v83.688c0 4.143-3.358 7.5-7.5 7.5z" fill="#fed402"/></g></g></g></g></svg>